C:\Users\r0593348\3dpredictsim\Results\batch_windlass\Pog_s1_tmt_bCst_d00_k500_WL40_ig24_pas_GRF.mot
nRows=22
nColumns=19

name C:\Users\r0593348\3dpredictsim\Results\batch_windlass\Pog_s1_tmt_bCst_d00_k500_WL40_ig24_pas_GRF.mot
datacolumns 19
datarows 22
range 0.0000000000 0.2387512291
endheader
time 	ground_force_vx	ground_force_vy	ground_force_vz	ground_force_px	ground_force_py	ground_force_pz	1_ground_force_vx	1_ground_force_vy	1_ground_force_vz	1_ground_force_px	1_ground_force_py	1_ground_force_pz	ground_torque_x	ground_torque_y	ground_torque_z	1_ground_torque_x	1_ground_torque_y	1_ground_torque_z
        0.0000000000	      -65.1209758377	       57.8693794613	       31.1113202992	        0.1769216673	        0.0000000000	        0.0380992072	       79.8161379351	      436.7411686505	       -4.4486188550	       -0.3202597557	        0.0000000000	       -0.0301281658	        0.0000000000	        0.0000000000	        0.0000000000	        0.0000000000	        0.0000000000	        0.0000000000	
        0.0113691061	     -104.9861982016	      134.8519307677	       83.5643885354	        0.1834122358	        0.0000000000	        0.0356073611	       55.1589318527	      336.7202626255	      -11.4622267927	       -0.3137118219	        0.0000000000	       -0.0276472085	        0.0000000000	        0.0000000000	        0.0000000000	        0.0000000000	        0.0000000000	        0.0000000000	
        0.0227382123	      -49.3725065343	      280.6046342409	       33.5244833976	        0.1880214886	        0.0000000000	        0.0325967972	       29.3632123088	      236.6727664904	      -12.7699366996	       -0.3033876406	        0.0000000000	       -0.0228135244	        0.0000000000	        0.0000000000	        0.0000000000	        0.0000000000	        0.0000000000	        0.0000000000	
        0.0341073184	      -50.6397943060	      442.3648045322	        5.1687789525	        0.1908301603	        0.0000000000	        0.0322888252	       11.3623270593	      165.5998450627	      -10.6507909652	       -0.2915975288	        0.0000000000	       -0.0160397059	        0.0000000000	        0.0000000000	        0.0000000000	        0.0000000000	        0.0000000000	        0.0000000000	
        0.0454764246	      -75.6746015230	      637.1001466067	       -5.8678657216	        0.1978316575	        0.0000000000	        0.0342284817	        1.8758354494	      132.4686462853	       -8.7937116155	       -0.2919245704	        0.0000000000	       -0.0160870652	        0.0000000000	        0.0000000000	        0.0000000000	        0.0000000000	        0.0000000000	        0.0000000000	
        0.0568455307	     -102.0924643406	      794.3095591596	      -12.1738156481	        0.2052084161	        0.0000000000	        0.0364824037	       -2.6684599911	       86.8785728513	       -7.6300675015	       -0.2916820519	        0.0000000000	       -0.0161301763	        0.0000000000	        0.0000000000	        0.0000000000	        0.0000000000	        0.0000000000	        0.0000000000	
        0.0682146369	     -114.4836737764	      861.0090963187	      -14.6688352520	        0.2107666237	        0.0000000000	        0.0380378812	       -9.1545658958	       36.1659230137	       -4.7812366164	       -0.2923292570	        0.0000000000	       -0.0162053433	        0.0000000000	        0.0000000000	        0.0000000000	        0.0000000000	        0.0000000000	        0.0000000000	
        0.0795837430	     -116.1939343914	      870.1953104221	      -15.8889466853	        0.2152388408	        0.0000000000	        0.0391528652	        0.1028224363	       -0.1040716026	       -0.0004431979	        0.0000000000	        0.0000000000	        0.0000000000	        0.0000000000	        0.0000000000	        0.0000000000	        0.0000000000	        0.0000000000	        0.0000000000	
        0.0909528492	     -111.4900682206	      856.8710021514	      -15.8875220699	        0.2189247837	        0.0000000000	        0.0398010806	        0.0000421761	       -0.0000352809	       -0.0000032649	        0.0000000000	        0.0000000000	        0.0000000000	        0.0000000000	        0.0000000000	        0.0000000000	        0.0000000000	        0.0000000000	        0.0000000000	
        0.1023219553	      -96.3148473623	      824.9977028373	      -15.9091125197	        0.2224097753	        0.0000000000	        0.0400242616	        0.0000124015	       -0.0000090990	       -0.0000010778	        0.0000000000	        0.0000000000	        0.0000000000	        0.0000000000	        0.0000000000	        0.0000000000	        0.0000000000	        0.0000000000	        0.0000000000	
        0.1136910615	      -84.7580583809	      783.0689475529	      -15.5491745416	        0.2262164563	        0.0000000000	        0.0401666530	        0.0000553024	       -0.0000363893	       -0.0000049962	        0.0000000000	        0.0000000000	        0.0000000000	        0.0000000000	        0.0000000000	        0.0000000000	        0.0000000000	        0.0000000000	        0.0000000000	
        0.1250601676	      -73.6162991734	      743.9585815292	      -15.7201866923	        0.2304002048	        0.0000000000	        0.0401999593	        0.0014901833	       -0.0009011425	       -0.0001363067	        0.0000000000	        0.0000000000	        0.0000000000	        0.0000000000	        0.0000000000	        0.0000000000	        0.0000000000	        0.0000000000	        0.0000000000	
        0.1364292738	      -62.9664771988	      707.4944053961	      -15.9201103738	        0.2346776136	        0.0000000000	        0.0401913973	       -0.0130946133	        0.0074338983	        0.0012000293	        0.0000000000	        0.0000000000	        0.0000000000	        0.0000000000	        0.0000000000	        0.0000000000	        0.0000000000	        0.0000000000	        0.0000000000	
        0.1477983799	      -53.0844137823	      674.1725138784	      -16.1696515467	        0.2387652124	        0.0000000000	        0.0402131135	       -0.0128672656	        0.0069339770	        0.0011606320	        0.0000000000	        0.0000000000	        0.0000000000	        0.0000000000	        0.0000000000	        0.0000000000	        0.0000000000	        0.0000000000	        0.0000000000	
        0.1591674861	      -44.2224208405	      646.3174481136	      -16.8131779452	        0.2427863465	        0.0000000000	        0.0402759610	       -0.0079192975	        0.0040580737	        0.0007122168	        0.0000000000	        0.0000000000	        0.0000000000	        0.0000000000	        0.0000000000	        0.0000000000	        0.0000000000	        0.0000000000	        0.0000000000	
        0.1705365922	      -36.5904411888	      624.3921915457	      -17.4679030804	        0.2468332774	        0.0000000000	        0.0403717301	       -0.0059785964	        0.0029147025	        0.0005443226	        0.0000000000	        0.0000000000	        0.0000000000	        0.0000000000	        0.0000000000	        0.0000000000	        0.0000000000	        0.0000000000	        0.0000000000	
        0.1819056984	      -30.2136338532	      607.3526605649	      -18.1503481847	        0.2508528916	        0.0000000000	        0.0404860583	       -0.0060745967	        0.0028247113	        0.0005635028	        0.0000000000	        0.0000000000	        0.0000000000	        0.0000000000	        0.0000000000	        0.0000000000	        0.0000000000	        0.0000000000	        0.0000000000	
        0.1932748045	      -24.8565949651	      594.3212187732	      -18.6314806928	        0.2549114749	        0.0000000000	        0.0406105401	       -0.0082147018	        0.0036616026	        0.0007757922	        0.0000000000	        0.0000000000	        0.0000000000	        0.0000000000	        0.0000000000	        0.0000000000	        0.0000000000	        0.0000000000	        0.0000000000	
        0.2046439107	      -21.4400206997	      585.5371197423	      -18.8028007774	        0.2591267361	        0.0000000000	        0.0407272340	       -0.0140883716	        0.0060571242	        0.0013482874	        0.0000000000	        0.0000000000	        0.0000000000	        0.0000000000	        0.0000000000	        0.0000000000	        0.0000000000	        0.0000000000	        0.0000000000	
        0.2160130168	      -19.0275384028	      580.5764176365	      -18.7353661125	        0.2634458850	        0.0000000000	        0.0408160464	       -0.0285684809	        0.0119192252	        0.0027513779	        0.0000000000	        0.0000000000	        0.0000000000	        0.0000000000	        0.0000000000	        0.0000000000	        0.0000000000	        0.0000000000	        0.0000000000	
        0.2273821230	      -16.4257205597	      578.1082160479	      -18.6559749917	        0.2680315038	        0.0000000000	        0.0408597819	       -0.0632822198	        0.0257523059	        0.0060907850	        0.0000000000	        0.0000000000	        0.0000000000	        0.0000000000	        0.0000000000	        0.0000000000	        0.0000000000	        0.0000000000	        0.0000000000	
        0.2387512291	      -14.0398124812	      576.9876797816	      -18.6028134225	        0.2728675832	        0.0000000000	        0.0408490055	       -0.1411754696	        0.0562613599	        0.0135093698	        0.0000000000	        0.0000000000	        0.0000000000	        0.0000000000	        0.0000000000	        0.0000000000	        0.0000000000	        0.0000000000	        0.0000000000	
